<?xml version="1.0" encoding="UTF-8" standalone="no"?>
<svg id="mixbook" xmlns="http://www.w3.org/2000/svg" version="1.1" viewBox="0 0 43 37">
  <g stroke="none" stroke-width="1" fill="#EC4116" fill-rule="evenodd">
    <path d="M38.8202,0.0344 L21.8242,2.1394 L4.8292,0.0344 C2.3642,-0.2706 0.3602,1.4854 0.3602,3.9504 L0.3602,33.2054 C0.3602,35.6694 2.3642,37.4314 4.8292,37.1334 L21.8242,35.0734 L38.8202,37.1334 C41.2852,37.4314 43.2902,35.6694 43.2902,33.2054 L43.2902,3.9504 C43.2902,1.4854 41.2852,-0.2706 38.8202,0.0344 Z M35.768,9.5896 C35.981,9.5756 36.388,9.5496 36.523,9.5416 C36.91,9.5176 37.223,9.1966 37.223,8.8246 L37.223,6.7366 C37.223,6.3646 36.91,6.0886 36.523,6.1226 C36.381,6.1346 29.895,6.6846 29.895,6.6846 C28.705,6.7866 28.022,7.2256 27.573,8.2496 C26.753,10.1036 21.83,20.8026 21.825,20.8126 C21.82,20.8026 16.897,10.1036 16.077,8.2496 C15.628,7.2256 14.944,6.7866 13.754,6.6846 C13.754,6.6846 7.269,6.1346 7.127,6.1226 C6.74,6.0886 6.426,6.3646 6.426,6.7366 L6.426,8.8246 C6.426,9.1966 6.74,9.5176 7.127,9.5416 C7.262,9.5496 7.668,9.5756 7.881,9.5896 C8.534,9.6306 9.041,10.1636 9.041,10.6986 L9.041,26.4196 C9.041,27.1076 8.444,27.5536 7.881,27.5866 C7.644,27.6006 7.262,27.6236 7.127,27.6306 C6.74,27.6546 6.426,27.9746 6.426,28.3466 L6.426,30.4356 C6.426,30.8076 6.74,31.0836 7.127,31.0516 C7.269,31.0396 15.856,30.3336 15.996,30.3216 C16.383,30.2906 16.696,29.9836 16.696,29.6366 L16.696,27.6906 C16.696,27.3446 16.383,27.0816 15.996,27.1046 C15.863,27.1136 14.432,27.1976 14.432,27.1976 L14.432,15.6886 C14.432,15.6886 17.265,21.9626 18.735,25.0606 C19.064,25.7456 19.886,26.0706 20.704,26.0706 L22.946,26.0706 C23.764,26.0706 24.586,25.7456 24.915,25.0606 C26.385,21.9626 29.218,15.6886 29.218,15.6886 L29.218,27.1976 C29.218,27.1976 27.786,27.1136 27.654,27.1046 C27.267,27.0816 26.954,27.3446 26.954,27.6906 L26.954,29.6366 C26.954,29.9836 27.267,30.2906 27.654,30.3216 C27.794,30.3336 36.381,31.0396 36.523,31.0516 C36.91,31.0836 37.223,30.8076 37.223,30.4356 L37.223,28.3466 C37.223,27.9746 36.91,27.6546 36.523,27.6306 C36.388,27.6236 36.006,27.6006 35.768,27.5866 C35.206,27.5536 34.609,27.1076 34.609,26.4196 L34.609,10.6986 C34.609,10.1636 35.115,9.6306 35.768,9.5896 Z"></path>
  </g>
</svg>
