<?xml version="1.0" encoding="utf-8"?>
<svg id="paragraph" xmlns="http://www.w3.org/2000/svg" version="1.1" viewBox="0 0 220 220">
  <g stroke="none" fill="#000000" fill-rule="evenodd">
    <path d="M39.228,31 L180.675,31 L180.904,78.378 L174.136,78.378 C171.917,61.429 165.57,52.962 155.093,46.979 C149.202,43.681 140.409,41.88 128.708,41.572 L128.708,162.334 C128.708,170.983 130.216,176.723 133.239,179.555 C136.259,182.387 142.548,183.803 152.11,183.803 L152.11,189.768 L68.367,189.768 L68.367,183.803 C77.545,183.803 83.642,182.369 86.664,179.497 C89.685,176.627 91.195,170.906 91.195,162.334 L91.195,41.572 C79.724,41.881 70.929,43.681 64.81,46.979 C53.568,53.115 47.22,61.582 45.767,78.378 L39,78.378 L39.228,31 L39.228,31 L39.228,31 Z"></path>
    <path d="M0,30 L10,30 L10,40 L0,40 L0,30 Z M20,0 L30,0 L30,10 L20,10 L20,0 Z M40,0 L50,0 L50,10 L40,10 L40,0 Z M60,0 L70,0 L70,10 L60,10 L60,0 Z M80,0 L90,0 L90,10 L80,10 L80,0 Z M100,0 L110,0 L110,10 L100,10 L100,0 Z M120,0 L130,0 L130,10 L120,10 L120,0 Z M140,0 L150,0 L150,10 L140,10 L140,0 Z M160,0 L170,0 L170,10 L160,10 L160,0 Z M180,0 L190,0 L190,10 L180,10 L180,0 Z M200,0 L220,0 L220,10 L200,10 L200,0 Z M30,210 L40,210 L40,220 L30,220 L30,210 Z M50,210 L60,210 L60,220 L50,220 L50,210 Z M70,210 L80,210 L80,220 L70,220 L70,210 Z M90,210 L100,210 L100,220 L90,220 L90,210 Z M110,210 L120,210 L120,220 L110,220 L110,210 Z M130,210 L140,210 L140,220 L130,220 L130,210 Z M150,210 L160,210 L160,220 L150,220 L150,210 Z M170,210 L180,210 L180,220 L170,220 L170,210 Z M190,210 L200,210 L200,220 L190,220 L190,210 Z M0,50 L10,50 L10,60 L0,60 L0,50 Z M0,70 L10,70 L10,80 L0,80 L0,70 Z M0,90 L10,90 L10,100 L0,100 L0,90 Z M0,110 L10,110 L10,120 L0,120 L0,110 Z M0,130 L10,130 L10,140 L0,140 L0,130 Z M0,150 L10,150 L10,160 L0,160 L0,150 Z M0,170 L10,170 L10,180 L0,180 L0,170 Z M0,190 L10,190 L10,200 L0,200 L0,190 Z M210,20 L220,20 L220,30 L210,30 L210,20 Z M210,40 L220,40 L220,50 L210,50 L210,40 Z M210,60 L220,60 L220,70 L210,70 L210,60 Z M210,80 L220,80 L220,90 L210,90 L210,80 Z M210,100 L220,100 L220,110 L210,110 L210,100 Z M210,120 L220,120 L220,130 L210,130 L210,120 Z M210,140 L220,140 L220,150 L210,150 L210,140 Z M210,160 L220,160 L220,170 L210,170 L210,160 Z M210,180 L220,180 L220,190 L210,190 L210,180 Z M210,200 L220,200 L220,220 L210,220 L210,200 Z M0,0 L10,0 L10,20 L0,20 L0,0 Z M0,210 L20,210 L20,220 L0,220 L0,210 Z"></path>
  </g>
</svg>
