<?xml version="1.0" encoding="utf-8"?>
<svg id="text" xmlns="http://www.w3.org/2000/svg" version="1.1" viewBox="0 0 220 220">
  <path d="M39.276,30.616 L180.723,30.616 L180.952,77.994 L174.184,77.994 C171.965,61.045 165.618,52.578 155.141,46.595 C149.25,43.297 140.457,41.496 128.756,41.188 L128.756,161.95 C128.756,170.599 130.264,176.339 133.287,179.171 C136.307,182.003 142.596,183.419 152.158,183.419 L152.158,189.384 L68.415,189.384 L68.415,183.419 C77.593,183.419 83.69,181.985 86.712,179.113 C89.733,176.243 91.243,170.522 91.243,161.95 L91.243,41.188 C79.772,41.497 70.977,43.297 64.858,46.595 C53.616,52.731 47.268,61.198 45.815,77.994 L39.048,77.994 L39.276,30.616 L39.276,30.616 L39.276,30.616 Z" stroke="none" fill-rule="evenodd" fill="#000000"></path>
</svg>
